# xmcd CD database file
#
# Track frame offsets:
#	150
#	13246
#	24921
#	35258
#	46320
#	62676
#	76859
#	91488
#	107732
#	120577
#	135596
#	148859
#	161844
#	172516
#	185946
#	198011
#	210689
#
# Disc length: 3064 seconds
#
# Revision: 0
# Processed by: cddbd v1.5.1PL0 Copyright (c) Steve Scherf et al.
# Submitted via: CDex 1.51
#
DISCID=e00bf611
DTITLE=Bud Powell - Somebody loves me
DYEAR=1900
DGENRE=Jazz
TTITLE0=Somebody loves me
TTITLE1=Bud's Bubble
TTITLE2=Nice work if you can get it
TTITLE3=Tempus fugue-it
TTITLE4=Cherokee
TTITLE5=Strictly confidential
TTITLE6=So sorry, please
TTITLE7=Sometime I'am happy
TTITLE8=Yersterdays
TTITLE9=Body and soul
TTITLE10=Over the rainbow
TTITLE11=I'll remember april
TTITLE12=Off minor
TTITLE13=Celia
TTITLE14=I'll keep loving you
TTITLE15=Sweet Georgia brown
TTITLE16=Nihgt in Tunisia
EXTD=
EXTT0=
EXTT1=
EXTT2=
EXTT3=
EXTT4=
EXTT5=
EXTT6=
EXTT7=
EXTT8=
EXTT9=
EXTT10=
EXTT11=
EXTT12=
EXTT13=
EXTT14=
EXTT15=
EXTT16=
PLAYORDER=
